<svg version="1.1" id="Layer_1" xmlns="http://www.w3.org/2000/svg" xmlns:xlink="http://www.w3.org/1999/xlink" x="0px" y="0px"
	 viewBox="0 0 3656.7 186.9" style="enable-background:new 0 0 3656.7 186.9;" xml:space="preserve">
<g>
	<g>
		<g>
			<rect x="2147.2" y="77.8" width="164.9" height="10"/>
			<g>
				<path d="M2151.3,82.8c10.4-10.4,15.4-31,15.8-45.3c-14.3,19.2-32.8,35.9-55.2,45.3c22.4,9,40.2,26.7,55.2,45.3
					C2165.8,112.8,2162.1,94.2,2151.3,82.8z"/>
			</g>
		</g>
		<path d="M2260.9,108.1c-27.1,0-40.8-11.4-54-22.5l4.8-5.7l0,0c12.7,10.7,24.8,20.7,49.2,20.7s36.4-10.1,49.2-20.7
			c13.2-11.1,26.8-22.5,54-22.5s40.8,11.4,54,22.5l-4.8,5.7c-12.7-10.7-24.8-20.7-49.2-20.7s-36.4,10.1-49.2,20.7
			C2301.7,96.7,2288,108.1,2260.9,108.1z"/>
	</g>
	<g>
		<path d="M3289.8,7.5v4.8l-2,0.4c-7.9,1.4-12.3,4.6-16.2,15.4l-43.7,119.8h-4l-32.2-93.5l-34.4,93.5h-3.8l-43.3-119.8
			c-4-10.9-6.3-14-14.2-15.4l-2.4-0.4V7.5h50v4.8l-3.6,0.4c-9.7,1-14.8,3.8-11.3,14.2l32,90l26.9-74l-5.1-14.8
			c-3.6-10.7-6.1-14.2-14.4-15.4l-2.6-0.4V7.5h49.4v4.8l-3.4,0.4c-9.7,1.2-14.2,4-10.7,14.2l30.5,89.8l31.8-89.6
			c3.8-10.5-0.6-13.2-10.3-14.4l-3.4-0.4V7.5H3289.8z"/>
		<path d="M3282.6,141.6l3.6-0.4c6.7-0.8,9.1-3,9.1-10.9V72.6c0-7.7-2.4-10.1-12.7-12.1v-3.6l29.1-8.5h1.4v81.9
			c0,7.9,2.4,10.1,9.1,10.9l3.6,0.4v4.4h-43.1L3282.6,141.6L3282.6,141.6z M3292.1,21.7c0-6.1,5.3-11.3,11.5-11.3
			c6.3,0,11.5,5.1,11.5,11.3c0,5.9-5.3,11.1-11.5,11.1C3297.5,32.8,3292.1,27.7,3292.1,21.7z"/>
		<path d="M3436.6,141.6v4.4h-42.9v-4.4l3.6-0.4c6.7-0.8,9.1-3,9.1-10.9V80.1c0-13.8-6.7-21.4-18.8-21.4c-9.3,0-17.2,4.3-22.6,9.9
			v61.7c0,7.9,2.4,10.1,9.1,10.9l3.6,0.4v4.4h-43.1v-4.4l3.6-0.4c6.7-0.8,9.1-3,9.1-10.9V72.4c0-7.5-2.4-9.9-12.7-11.9v-3.6
			l28.5-8.5h1.6v16.2c5.7-8.1,17.4-16.8,31.6-16.8c20.2,0,27.9,14.4,27.9,27.3v55.2c0,7.9,2.4,10.1,9.1,10.9L3436.6,141.6z"/>
		<path d="M3522,119.6c-8.7,19.8-22.7,28.7-38.4,28.7c-24.1,0-41.7-19.2-41.7-48.1c0-31.8,20.6-52,41.7-52
			c24.5,0,36.8,18.4,36.8,36.8c0,1.6,0,3-0.2,4.9h-62.3v0.2c0,30.8,15.8,43.1,33.2,43.1c11.9,0,20-4.9,27.7-15.6L3522,119.6z
			 M3458.3,83.6h44.5c-1-17.6-7.9-29.7-20.8-29.7C3470.4,54,3460.1,64.7,3458.3,83.6z"/>
		<path d="M3533.2,140.2l0.8-28.5h4.9c3.8,16.4,12.9,30.6,28.9,30.6c11.7,0,19-7.1,19-18c0-9.9-6.7-13.7-19-18.8l-6.1-2.4
			c-16.8-6.9-26.9-12.7-26.9-27.7c0-16,15.6-27.7,33.2-27.7c12.5,0,21.9,2.8,28.3,5.3l-0.4,24.1h-4.9c-3.2-12.8-9.9-23.5-24.1-23.5
			c-10.1,0-17.6,6.5-17.6,15.4c0,8.5,5.1,12.5,19.2,18.2l6.1,2.6c19,7.7,27.5,14.2,27.5,28.7c0,16.8-14.6,29.7-34.8,29.7
			C3552.8,148.3,3540.9,144.4,3533.2,140.2z"/>
	</g>
	<g>
		<path d="M2584.7,141.2v4.8h-29.1c-2.6-3.2-9.9-12.5-16.2-21.9l-22.7-33.2c-5.5-8.1-7.7-9.5-12.9-9.5h-9.5v48.5
			c0,8.1,5.5,9.9,13.2,10.9l3.8,0.6v4.8h-51.8v-4.8l3.6-0.6c6.7-1,12.5-2.8,12.5-10.9v-106c0-8.1-5.7-10.3-12.5-11.1l-3.6-0.4V7.5
			h56.6c22.7,0,47.9,9.3,47.9,35.4c0,20.4-15.8,32.2-34.4,36.2l27.1,38.2c11.9,17,17.6,22.1,25.3,23.3L2584.7,141.2z M2512.5,74.7
			c19,0,32.2-8.1,32.2-29.7c0-24.1-17-31-34.6-31h-15.8v60.7H2512.5z"/>
		<path d="M2678.9,136.4v2.8c-4.8,5.5-11.7,8.1-17,8.1c-10.1,0-14-6.9-14.6-14.4c-5.7,8.1-16.6,15-28.1,15
			c-14.4,0-26.3-10.9-26.3-25.5c0-13.7,8.9-19.6,26.9-25.3l27.3-8.5V75.7c0-15.6-5.9-22.9-17.2-22.9c-9.1,0-11.3,4.8-14.8,15.6
			c-2,6.1-4.8,7.3-8.7,7.3c-5.3,0-9.5-2.8-11.3-5.7c2.6-9.7,15-22.2,36-22.2c24.5,0,33.6,13,33.6,27.7v52.2c0,6.9,2.4,9.9,8.5,9.9
			C2675.4,137.6,2678,136.8,2678.9,136.4z M2647.1,128.5v-34l-22.4,7.5c-11.3,3.8-14.6,7.7-14.6,16c0,9.5,5.9,19.4,18.4,19.4
			C2636,137.4,2643.4,133.5,2647.1,128.5z"/>
		<path d="M2779,138.8v3.8l-25.1,4.8c-2.2-4.4-3.6-8.5-4.4-13.6c-4.4,6.5-14.2,14.2-28.7,14.2c-22.1,0-39-18-39-47.3
			c0-30.7,20.2-52.2,49.6-52.2c6.1,0,12.1,0.8,17.2,2.8V24.3c0-7.5-2.6-9.9-12.7-12.1V8.9l28.9-8.7h1.6v125
			C2766.6,134.5,2768.7,137.4,2779,138.8z M2749.1,129.7c-0.2-3-0.4-6.3-0.4-10.3V63.7c-3.8-5.3-9.9-9.3-19-9.3
			c-17.4,0-28.5,13.6-28.5,42.9c0,26.5,11.7,40.5,29.1,40.5C2738.5,137.8,2744.6,134.5,2749.1,129.7z"/>
		<path d="M2788.1,141.6l3.6-0.4c6.7-0.8,9.1-3,9.1-10.9V72.6c0-7.7-2.4-10.1-12.7-12.1v-3.6l29.1-8.5h1.4v81.9
			c0,7.9,2.4,10.1,9.1,10.9l3.6,0.4v4.4h-43.1L2788.1,141.6L2788.1,141.6z M2797.6,21.7c0-6.1,5.3-11.3,11.5-11.3
			c6.3,0,11.5,5.1,11.5,11.3c0,5.9-5.3,11.1-11.5,11.1S2797.6,27.7,2797.6,21.7z"/>
		<path d="M2836.4,99.4c0-30.1,20.6-51.4,45.1-51.4c23.7,0,32.4,13.5,34,19.6c-2.4,4-6.3,6.7-10.7,6.7c-4.1,0-6.7-2-9.7-7.3
			c-3.8-7.1-6.9-13-17-13c-11.3,0-25.1,10.7-25.1,37.8s15.4,41.3,32.6,41.3c13.1,0,21.6-6.5,28.9-17.4l3.2,2
			c-6.9,19.4-20.2,30.5-38.2,30.5C2852.6,148.1,2836.4,127.5,2836.4,99.4z"/>
		<path d="M3012.9,136.4v2.8c-4.8,5.5-11.7,8.1-17,8.1c-10.1,0-14-6.9-14.6-14.4c-5.7,8.1-16.6,15-28.1,15
			c-14.4,0-26.3-10.9-26.3-25.5c0-13.7,8.9-19.6,26.9-25.3l27.3-8.5V75.7c0-15.6-5.9-22.9-17.2-22.9c-9.1,0-11.3,4.8-14.8,15.6
			c-2,6.1-4.8,7.3-8.7,7.3c-5.3,0-9.5-2.8-11.3-5.7c2.6-9.7,15-22.2,36-22.2c24.5,0,33.6,13,33.6,27.7v52.2c0,6.9,2.4,9.9,8.5,9.9
			C3009.3,137.6,3011.9,136.8,3012.9,136.4z M2981.1,128.5v-34l-22.4,7.5c-11.3,3.8-14.6,7.7-14.6,16c0,9.5,5.9,19.4,18.4,19.4
			C2970,137.4,2977.3,133.5,2981.1,128.5z"/>
		<path d="M3020.3,141.6l3.6-0.4c6.7-0.8,9.1-3,9.1-10.9v-106c0-7.5-2.4-9.9-12.7-12.1V8.9l29.1-8.7h1.4v130.1
			c0,7.9,2.4,10.1,9.1,10.9l3.6,0.4v4.4h-43.1L3020.3,141.6L3020.3,141.6z"/>
	</g>
	<path d="M66.8,23.4L0,7.7v13.1c0,11.5,9.3,20.8,20.8,20.8h76.3v6H20.9C9.3,47.6,0,57,0,68.5v55.3h97.1v6H0v15.7h55.6
		c0,11.6,9.4,21,21,21h1.8v-21h34.8c11.5,0,20.9-9.3,20.9-20.9V7.7L66.8,23.4z M67,109.3c-14.8,0-27.3-9.7-31.2-23
		c3.9-13.3,16.4-23,31.2-23s27.3,9.7,31.2,23C94.3,99.6,81.8,109.3,67,109.3z"/>
	<ellipse cx="67" cy="86.3" rx="16.9" ry="16.9"/>
	<path d="M341.1,23.5v106c0,8.1,5.7,9.9,12.5,10.9l3.6,0.6v4.8h-50.8V141l3.6-0.6c6.7-1,12.5-2.8,12.5-10.9v-103l-51.4,119.2h-4.8
		L214.5,26.9v98.7c0,11.1,5.1,14,12.9,15l3.2,0.4v4.8H190V141l3.2-0.4c7.7-1,12.9-3.9,12.9-15v-102c0-8.1-5.7-10.3-12.5-11.1
		l-3.6-0.4V7.3h35.2l48.5,111.5L321.9,7.3h35.2v4.7l-3.6,0.4C346.8,13.2,341.1,15.4,341.1,23.5z"/>
	<path d="M363.2,98.5c0-29.9,22-50.4,46.9-50.4c24.7,0,46.7,19.8,46.7,49.6s-22,50.4-46.7,50.4C385.1,148.1,363.2,128.3,363.2,98.5z
		 M437,101.8c0-26.9-11.1-47.8-28.1-47.8c-17,0-25.9,17-25.9,40.1c0,24.3,10.3,48,28.3,48C428.1,142.2,437,125.2,437,101.8z"/>
	<path d="M556.7,95.5c0,31.2-20.2,52.4-49,52.4c-13.6,0-26.9-3.2-35.6-9.3V24.1c0-7.5-2.4-9.9-12.7-12.1V8.7L488.3,0h1.6v61.3
		c4.8-6.1,14-12.9,28.1-12.9C539.7,48.5,556.7,66.4,556.7,95.5z M537.3,99.1c0-26.5-11.5-40.7-28.5-40.7c-8.3,0-14.4,3-19,7.3v69.4
		c4,3.9,9.9,6.9,18.8,6.9C526.8,142,537.3,127.9,537.3,99.1z"/>
	<path d="M652.8,50.4v4.2c-8.1,1.8-12.1,7.7-18.6,23.3l-29.9,71c-12.3,29.1-19.6,38-32.6,38c-6.3,0-11.5-2-15.2-4.9
		c1.2-6.7,5.3-13.1,12.3-13.1c5.5,0,8.3,2.6,13,2.6c5.7,0,8.1-4.4,16.4-24.7l1.4-3.4l-27.1-64.9c-6.7-16.4-9.3-22.3-16.6-23.9v-4.2
		h41.9v4.2l-3.6,0.6c-9.7,1.6-11.3,5.9-5.5,19.6l19.6,47.7l19-46.1c5.7-14,4.8-19.6-4.3-21.2l-3.4-0.6v-4.2L652.8,50.4L652.8,50.4z"
		/>
	<path d="M669.1,141l3.6-0.6c6.7-1,12.5-2.8,12.5-10.9v-106c0-8.1-5.7-10.3-12.5-11.1l-3.6-0.4V7.3h60.1c39.8,0,67.8,26.1,67.8,68.8
		c0,42.9-28.1,69.6-67.8,69.6h-60.1V141z M728.2,139c28.9,0,47.3-22.5,47.3-58.5c0-37.8-17-66.6-50.4-66.6h-21.2v115.7
		c0,7.9,5.5,9.5,12.8,9.5H728.2z"/>
	<path d="M807.4,141.4l3.6-0.4c6.7-0.8,9.1-3,9.1-10.9V72.4c0-7.7-2.4-10.1-12.7-12.1v-3.6l29.1-8.5h1.4v81.9
		c0,7.9,2.4,10.1,9.1,10.9l3.6,0.4v4.4h-43.1V141.4z M816.9,21.5c0-6.1,5.3-11.3,11.5-11.3c6.3,0,11.5,5.1,11.5,11.3
		c0,5.9-5.3,11.1-11.5,11.1S816.9,27.5,816.9,21.5z"/>
	<path d="M854.7,99.3c0-30.1,20.6-51.4,45.1-51.4c23.7,0,32.4,13.5,34,19.6c-2.4,3.9-6.3,6.7-10.7,6.7c-4.2,0-6.7-2-9.7-7.3
		c-3.8-7.1-6.9-13-17-13c-11.3,0-25.1,10.7-25.1,37.8s15.4,41.3,32.6,41.3c13,0,21.5-6.5,28.9-17.4l3.2,2
		c-6.9,19.4-20.2,30.4-38.2,30.4C870.9,147.9,854.7,127.3,854.7,99.3z"/>
	<path d="M1039.3,141.4v4.4h-41.1v-4.4l3.2-0.4c6.1-0.6,5.7-3.4-0.2-11.5l-24.3-33.8l-9.1,8.3v26.1c0,7.9,2.4,10.1,9.1,10.9l3.6,0.4
		v4.4h-43.1v-4.4l3.6-0.4c6.7-0.8,9.1-3,9.1-10.9v-106c0-7.5-2.4-9.9-12.7-12.1V8.7L966.4,0h1.4v95.9L995,70.2
		c9.5-8.7,9.7-13.6,2.6-15l-2.8-0.6v-4.2h37.4v4c-9.1,2.2-19.2,8.3-32.8,20.8l-10.7,9.7l28.5,38.8c8.1,11.1,11.5,15.6,19.2,17.2
		L1039.3,141.4z"/>
	<g>
		<path d="M1244,141.2l3.6-0.6c6.7-1,12.5-2.8,12.5-10.9V14H1249c-21.8,0-28.9,8.3-34,28.7h-4.9l2.6-35.2h113.9l2.6,35.2h-4.9
			c-5.3-20.4-12.3-28.7-34-28.7h-11.3v115.7c0,8.1,5.7,9.9,12.5,10.9l3.6,0.6v4.8h-50.8L1244,141.2L1244,141.2z"/>
		<path d="M1436.7,141.6v4.4h-42.9v-4.4l3.6-0.4c6.7-0.8,9.1-3,9.1-10.9V80.7c0-14-7.1-22-19.2-22c-9.3,0-17.2,4.3-22.5,9.9v61.7
			c0,7.9,2.4,10.1,9.1,10.9l3.6,0.4v4.4h-43.1v-4.4l3.6-0.4c6.7-0.8,9.1-3,9.1-10.9v-106c0-7.5-2.4-9.9-12.7-12.1V8.9l29.1-8.7h1.4
			v64.1c5.7-7.7,17-16.4,31.2-16.4c20.4,0,28.3,14.6,28.3,27.9v54.6c0,7.9,2.4,10.1,9.1,10.9L1436.7,141.6z"/>
		<path d="M1521.8,119.6c-8.7,19.8-22.7,28.7-38.4,28.7c-24.1,0-41.7-19.2-41.7-48.1c0-31.8,20.6-52,41.7-52
			c24.5,0,36.8,18.4,36.8,36.8c0,1.6,0,3-0.2,4.9h-62.3v0.2c0,30.8,15.8,43.1,33.2,43.1c11.9,0,20-4.9,27.7-15.6L1521.8,119.6z
			 M1458.1,83.7h44.5c-1-17.6-7.9-29.7-20.8-29.7C1470.2,54,1459.9,64.7,1458.1,83.7z"/>
		<path d="M1819.6,141.2c-6.7-0.8-9.1-3-9.1-10.9V75.7c0-13.2-7.9-27.9-28.3-27.9c-14.2,0-25.5,8.7-31.2,16.4V0.2h-1.4l-0.4,0.1
			c-15.9,4.8-32.5,7.2-49.2,7.2H1687v4.8l3.4,0.4c9.7,1.2,14,4,10.3,14.4l-31.8,89.6l-30.4-89.8c-3.6-10.3,1-13.1,10.7-14.2l3.4-0.4
			V7.5h-49.4v4.8l2.6,0.4c8.3,1.2,10.9,4.8,14.4,15.4l5.1,14.8l-26.9,74l-32-90c-3.6-10.5,1.6-13.2,11.3-14.2l3.6-0.4V7.5h-50v4.8
			l2.4,0.4c7.9,1.4,10.3,4.6,14.2,15.4l43.3,119.8h3.8l34.4-93.5l32.2,93.5h3.9l43.7-119.8c2.5-6.8,5.1-12.4,8.6-14.7
			c3.5-2.2,8-2.4,11.6-0.2c3.2,1.9,4.1,4.6,4.1,9.2v107.9c0,7.9-2.4,10.1-9.1,10.9l-3.6,0.4v4.4h43.1v-4.4l-3.6-0.4
			c-6.7-0.8-9.1-3-9.1-10.9V68.6c5.3-5.5,13.2-9.9,22.5-9.9c12.1,0,19.2,7.9,19.2,21.9v49.6c0,7.9-2.4,10.1-9.1,10.9l-3.6,0.4v4.4
			h42.9v-4.4L1819.6,141.2z"/>
		<path d="M1918.3,136.4v2.8c-4.8,5.5-11.7,8.1-17,8.1c-10.1,0-14-6.9-14.6-14.4c-5.7,8.1-16.6,15-28.1,15
			c-14.4,0-26.3-10.9-26.3-25.5c0-13.6,8.9-19.6,26.9-25.3l27.3-8.5V75.7c0-15.6-5.9-22.9-17.2-22.9c-9.1,0-11.3,4.8-14.8,15.6
			c-2,6.1-4.8,7.3-8.7,7.3c-5.3,0-9.5-2.8-11.3-5.7c2.6-9.7,15-22.2,36-22.2c24.5,0,33.6,13,33.6,27.7v52.2c0,6.9,2.4,9.9,8.5,9.9
			C1914.7,137.6,1917.3,136.8,1918.3,136.4z M1886.4,128.5v-34l-22.3,7.5c-11.3,3.8-14.6,7.7-14.6,16c0,9.5,5.9,19.4,18.4,19.4
			C1875.4,137.4,1882.7,133.5,1886.4,128.5z"/>
		<path d="M1924.6,141.6l3.6-0.4c6.7-0.8,9.1-3,9.1-10.9v-106c0-7.5-2.4-9.9-12.7-12.1V8.9l29.1-8.7h1.4v130.1
			c0,7.9,2.4,10.1,9.1,10.9l3.6,0.4v4.4h-43.1V141.6z"/>
		<path d="M2052,119.6c-8.7,19.8-22.7,28.7-38.4,28.7c-24.1,0-41.7-19.2-41.7-48.1c0-31.8,20.6-52,41.7-52
			c24.5,0,36.8,18.4,36.8,36.8c0,1.6,0,3-0.2,4.9h-62.3v0.2c0,30.8,15.8,43.1,33.2,43.1c11.9,0,20-4.9,27.7-15.6L2052,119.6z
			 M1988.3,83.7h44.5c-1-17.6-7.9-29.7-20.8-29.7C2000.4,54,1990.1,64.7,1988.3,83.7z"/>
		<g>
			<path d="M1068.3,106.2c0-25.2,18.6-42.6,39.6-42.6c20.9,0,39.4,16.7,39.4,42s-18.6,42.6-39.4,42.6
				C1086.9,148.1,1068.3,131.4,1068.3,106.2z M1130.7,109c0-22.7-9.4-40.4-23.7-40.4s-21.9,14.4-21.9,33.9
				c0,20.6,8.7,40.6,23.9,40.6C1123.2,143.1,1130.7,128.7,1130.7,109z"/>
			<path d="M1211.6,69.7c-1.2,4.5-4.5,9.7-9.5,9.7c-2.2,0-4-0.7-6.5-1.8c-2.3-1-3.8-1.5-6.2-1.5c-5,0-9,5.5-11.2,11.9v44.9
				c0,6.7,2.8,8.2,11.9,9.2l3.2,0.3v3.7h-40.8v-3.7l3-0.3c5.7-0.7,7.7-2.5,7.7-9.2V84.1c0-6.5-2-8.5-10.7-10.2v-3l24.1-7.2h1.3v18.7
				c3-8.4,9.9-18.5,20.6-18.5C1204.2,63.9,1209.4,67.1,1211.6,69.7z"/>
		</g>
	</g>
</g>
</svg>
