<svg version="1.1" id="Layer_1" xmlns="http://www.w3.org/2000/svg" xmlns:xlink="http://www.w3.org/1999/xlink" x="0px" y="0px"
	 viewBox="0 0 64.4 64.4" style="enable-background:new 0 0 64.4 64.4;" xml:space="preserve">
<g>
	<circle cx="32.2" cy="32.2" r="32.2"/>
	<g>
		<g>
			<path style="fill:#FFFFFF;" d="M45.45,46.1l-1.7-1.7c3.26-3.26,5.06-7.6,5.06-12.21s-1.8-8.95-5.06-12.21l1.7-1.7
				c3.71,3.71,5.76,8.65,5.76,13.9C51.21,37.45,49.17,42.39,45.45,46.1z"/>
		</g>
		<g>
			<path style="fill:#FFFFFF;" d="M40.82,41.47l-1.7-1.7c4.17-4.17,4.17-10.97,0-15.14l1.7-1.7C45.93,28.04,45.93,36.36,40.82,41.47
				z"/>
		</g>
	</g>
	<path style="fill:#FFFFFF;" d="M12.68,32.57v5.55c0,0.26,0.21,0.47,0.47,0.47h7.47c0.04,0,0.07-0.01,0.11-0.02l11.67,8.68
		c0.31,0.23,0.75,0.01,0.75-0.37V17.53c0-0.38-0.44-0.6-0.75-0.37l-11.67,8.68c-0.04-0.01-0.07-0.02-0.11-0.02h-7.47
		c-0.26,0-0.47,0.21-0.47,0.47v5.55V32.57z"/>
</g>
</svg>
