<svg version="1.1" id="Layer_1" xmlns="http://www.w3.org/2000/svg" xmlns:xlink="http://www.w3.org/1999/xlink" x="0px" y="0px"
	 viewBox="0 0 64.4 64.4" style="enable-background:new 0 0 64.4 64.4;" xml:space="preserve">
<g>
	<circle cx="32.2" cy="32.2" r="32.2"/>
	<g>
		<path style="fill:#FFFFFF;" d="M12.68,32.57v5.55c0,0.26,0.21,0.47,0.47,0.47h7.47c0.04,0,0.07-0.01,0.11-0.02l11.67,8.68
			c0.31,0.23,0.75,0.01,0.75-0.37V17.53c0-0.38-0.44-0.6-0.75-0.37l-11.67,8.68c-0.04-0.01-0.07-0.02-0.11-0.02h-7.47
			c-0.26,0-0.47,0.21-0.47,0.47v5.55V32.57z"/>
		<polygon style="fill:#FFFFFF;" points="51.72,27.57 49.99,25.84 45.36,30.47 40.73,25.84 39,27.57 43.62,32.2 39,36.83 
			40.73,38.56 45.36,33.93 49.99,38.56 51.72,36.83 47.09,32.2 		"/>
	</g>
</g>
</svg>
