<svg version="1.1" id="Layer_1" xmlns="http://www.w3.org/2000/svg" xmlns:xlink="http://www.w3.org/1999/xlink" x="0px" y="0px"
	 viewBox="0 0 200.8 80.3" style="enable-background:new 0 0 200.8 80.3;" xml:space="preserve">
<g>
	<g>
		<path d="M42.8,4.4C46,1.5,49.6,0,53.8,0c2.2,0,4.4,0.4,6.8,1.1c2.4,0.7,5,1.7,8,3c2.8,1.2,5.1,2,6.9,2.6c1.8,0.5,3.5,0.8,5,0.8
			c2.3,0,4.1-0.7,5.4-2c1.4-1.3,2.4-3.2,3.1-5.5h6.9c-1.2,5.7-3.4,10.1-6.5,13c-3.2,3-6.9,4.4-11,4.4c-2.2,0-4.4-0.4-6.8-1.1
			c-2.4-0.7-5-1.7-8-3c-2.8-1.2-5.1-2-6.9-2.6c-1.8-0.5-3.5-0.8-5-0.8c-2.3,0-4.1,0.7-5.4,2c-1.4,1.3-2.4,3.2-3.1,5.5h-6.9
			C37.4,11.7,39.6,7.4,42.8,4.4z"/>
		<path d="M113.2,4.4c3.2-2.9,6.9-4.4,11-4.4c2.2,0,4.4,0.4,6.8,1.1c2.4,0.7,5,1.7,8,3c2.8,1.2,5.1,2,6.9,2.6c1.8,0.5,3.5,0.8,5,0.8
			c2.3,0,4.1-0.7,5.4-2c1.4-1.3,2.4-3.2,3.1-5.5h6.9c-1.2,5.7-3.4,10.1-6.5,13c-3.2,3-6.9,4.4-11,4.4c-2.2,0-4.4-0.4-6.8-1.1
			c-2.4-0.7-5-1.7-8-3c-2.8-1.2-5.1-2-6.9-2.6c-1.8-0.5-3.5-0.8-5-0.8c-2.3,0-4.1,0.7-5.4,2c-1.4,1.3-2.4,3.2-3.1,5.5h-6.9
			C107.9,11.7,110,7.4,113.2,4.4z"/>
	</g>
	<g>
		<path d="M6.5,35.8c3.2-2.9,6.9-4.4,11-4.4c2.2,0,4.4,0.4,6.8,1.1c2.4,0.7,5,1.7,8,3c2.8,1.2,5.1,2,6.9,2.6c1.8,0.5,3.5,0.8,5,0.8
			c2.3,0,4.1-0.7,5.4-2c1.4-1.3,2.4-3.2,3.1-5.5h6.9c-1.2,5.7-3.4,10.1-6.5,13c-3.2,3-6.9,4.4-11,4.4c-2.2,0-4.4-0.4-6.8-1.1
			c-2.4-0.7-5-1.7-8-3c-2.8-1.2-5.1-2-6.9-2.6c-1.8-0.5-3.5-0.8-5-0.8c-2.3,0-4.1,0.7-5.4,2c-1.4,1.3-2.4,3.2-3.1,5.5H0
			C1.2,43.1,3.4,38.8,6.5,35.8z"/>
		<path d="M77,35.8c3.2-2.9,6.9-4.4,11-4.4c2.2,0,4.4,0.4,6.8,1.1c2.4,0.7,5,1.7,8,3c2.8,1.2,5.1,2,6.9,2.6c1.8,0.5,3.5,0.8,5,0.8
			c2.3,0,4.1-0.7,5.4-2c1.4-1.3,2.4-3.2,3.1-5.5h6.9c-1.2,5.7-3.4,10.1-6.5,13c-3.2,3-6.9,4.4-11,4.4c-2.2,0-4.5-0.4-6.8-1.1
			c-2.4-0.7-5-1.7-8-3c-2.8-1.2-5.1-2-6.9-2.6c-1.8-0.5-3.5-0.8-5-0.8c-2.3,0-4.1,0.7-5.4,2c-1.4,1.3-2.4,3.2-3.1,5.5h-6.9
			C71.6,43.1,73.8,38.8,77,35.8z"/>
		<path d="M147.4,35.8c3.2-2.9,6.9-4.4,11-4.4c2.2,0,4.4,0.4,6.8,1.1c2.4,0.7,5,1.7,8,3c2.8,1.2,5.1,2,6.9,2.6
			c1.8,0.5,3.5,0.8,5,0.8c2.3,0,4.1-0.7,5.4-2c1.4-1.3,2.4-3.2,3.1-5.5h6.9c-1.2,5.7-3.4,10.1-6.5,13c-3.2,3-6.9,4.4-11,4.4
			c-2.2,0-4.5-0.4-6.8-1.1c-2.4-0.7-5-1.7-8-3c-2.8-1.2-5.1-2-6.9-2.6c-1.8-0.5-3.5-0.8-5-0.8c-2.3,0-4.1,0.7-5.4,2
			c-1.4,1.3-2.4,3.2-3.1,5.5h-6.9C142.1,43.1,144.2,38.8,147.4,35.8z"/>
	</g>
	<g>
		<path d="M42.3,67.3c3.2-2.9,6.9-4.4,11-4.4c2.2,0,4.4,0.4,6.8,1.1c2.4,0.7,5,1.7,8,3c2.8,1.2,5.1,2,6.9,2.6c1.8,0.5,3.5,0.8,5,0.8
			c2.3,0,4.1-0.7,5.4-2c1.4-1.3,2.4-3.2,3.1-5.5h6.9c-1.2,5.7-3.4,10.1-6.5,13c-3.2,3-6.9,4.4-11,4.4c-2.2,0-4.4-0.4-6.8-1.1
			c-2.4-0.7-5-1.7-8-3c-2.8-1.2-5.1-2-6.9-2.6c-1.8-0.5-3.5-0.8-5-0.8c-2.3,0-4.1,0.7-5.4,2c-1.4,1.3-2.4,3.2-3.1,5.5h-6.9
			C36.9,74.6,39.1,70.2,42.3,67.3z"/>
		<path d="M112.7,67.3c3.2-2.9,6.9-4.4,11-4.4c2.2,0,4.4,0.4,6.8,1.1c2.4,0.7,5,1.7,8,3c2.8,1.2,5.1,2,6.9,2.6
			c1.8,0.5,3.5,0.8,5,0.8c2.3,0,4.1-0.7,5.4-2c1.4-1.3,2.4-3.2,3.1-5.5h6.9c-1.2,5.7-3.4,10.1-6.5,13c-3.2,3-6.9,4.4-11,4.4
			c-2.2,0-4.5-0.4-6.8-1.1c-2.4-0.7-5-1.7-8-3c-2.8-1.2-5.1-2-6.9-2.6c-1.8-0.5-3.5-0.8-5-0.8c-2.3,0-4.1,0.7-5.4,2
			c-1.4,1.3-2.4,3.2-3.1,5.5h-6.9C107.4,74.6,109.6,70.2,112.7,67.3z"/>
	</g>
</g>
</svg>
